<?xml version="1.0" encoding="utf-8"?>
<!-- Generator: Adobe Illustrator 16.0.2, SVG Export Plug-In . SVG Version: 6.00 Build 0)  -->
<!DOCTYPE svg PUBLIC "-//W3C//DTD SVG 1.1//EN" "http://www.w3.org/Graphics/SVG/1.1/DTD/svg11.dtd">
<svg version="1.1" id="Layer_1" xmlns="http://www.w3.org/2000/svg" xmlns:xlink="http://www.w3.org/1999/xlink" x="0px" y="0px"
	 width="1280px" height="800px" viewBox="0 0 1280 800" enable-background="new 0 0 1280 800" xml:space="preserve">
<g id="bg" display="none">
	<rect x="-15" y="-9" display="inline" fill="#E8E8E8" width="1311" height="819"/>
</g>
<g id="Layer_2">
	<g>
		<path fill="none" stroke="#000000" stroke-width="2" stroke-miterlimit="10" stroke-dasharray="5.0134,5.0134" d="
			M655.634,409.676c0,82.843-67.153,150-150,150c-82.843,0-150-67.156-150-150c0-82.843,67.157-150,150-150
			C588.48,259.676,655.634,326.833,655.634,409.676z"/>
	</g>
	<line fill="none" stroke="#000000" stroke-width="2" stroke-miterlimit="10" x1="504.5" y1="0" x2="504.5" y2="828"/>
	<line fill="none" stroke="#000000" stroke-width="2" stroke-miterlimit="10" x1="504.5" y1="167.603" x2="-20.883" y2="828"/>
	
		<line display="none" fill="none" stroke="#FFFFFF" stroke-width="2" stroke-miterlimit="10" x1="504.5" y1="167.603" x2="1045.563" y2="828"/>
	<g>
		<g>
			
				<line fill="none" stroke="#000000" stroke-width="2" stroke-miterlimit="10" x1="60.113" y1="671.577" x2="61.655" y2="669.609"/>
			
				<line fill="none" stroke="#000000" stroke-width="2" stroke-miterlimit="10" stroke-dasharray="4.9954,4.9954" x1="64.735" y1="665.677" x2="285.019" y2="384.526"/>
			
				<line fill="none" stroke="#000000" stroke-width="2" stroke-miterlimit="10" x1="286.56" y1="382.56" x2="288.102" y2="380.592"/>
		</g>
	</g>
</g>
<g id="Layer_2_1_">
	<polygon fill="#FE9A61" points="832.56,172.676 790.134,172.676 877.634,260.176 791.134,346.676 833.56,346.676 920.06,260.176 	
		"/>
</g>
</svg>
