<?xml version="1.0" encoding="utf-8"?>
<!-- Generator: Adobe Illustrator 16.0.2, SVG Export Plug-In . SVG Version: 6.00 Build 0)  -->
<!DOCTYPE svg PUBLIC "-//W3C//DTD SVG 1.1//EN" "http://www.w3.org/Graphics/SVG/1.1/DTD/svg11.dtd">
<svg version="1.1" id="principes" xmlns="http://www.w3.org/2000/svg" xmlns:xlink="http://www.w3.org/1999/xlink" x="0px" y="0px"
	 width="301px" height="310px" viewBox="0 0 301 310" enable-background="new 0 0 301 310" xml:space="preserve">
<linearGradient id="SVGID_1_" gradientUnits="userSpaceOnUse" x1="-11.9192" y1="971.6396" x2="308.0787" y2="417.3867" gradientTransform="matrix(1 0 0 1 16.7998 -525.5127)">
	<stop  offset="0" style="stop-color:#FE7A2E"/>
	<stop  offset="0.086" style="stop-color:#FE9153"/>
	<stop  offset="0.2742" style="stop-color:#FE9A61"/>
	<stop  offset="0.5484" style="stop-color:#834943"/>
	<stop  offset="0.7527" style="stop-color:#582D39"/>
	<stop  offset="0.9194" style="stop-color:#361730"/>
</linearGradient>
<rect x="-64.621" y="-68" display="none" fill="url(#SVGID_1_)" width="459" height="474"/>
<g display="none">
	<g display="inline">
		<path fill="none" stroke="#FFFFFF" stroke-miterlimit="10" d="M137.563,304.257c0.829,0.072,1.66,0.136,2.493,0.193
			c0.021-0.855,0.146-1.683,0.362-2.472"/>
		<path fill="none" stroke="#FFFFFF" stroke-miterlimit="10" stroke-dasharray="5.2044,5.2044" d="M143.031,297.544
			c1.806-1.78,4.279-2.879,7.017-2.879c3.689,0,6.913,2.002,8.644,4.979"/>
		<path fill="none" stroke="#FFFFFF" stroke-miterlimit="10" d="M159.689,302.037c0.215,0.789,0.335,1.617,0.351,2.471
			c0.833-0.051,1.664-0.109,2.494-0.176"/>
		<path fill="none" stroke="#FFFFFF" stroke-miterlimit="10" stroke-dasharray="5.0137,5.0137" d="M167.523,303.852
			C242.35,295.396,300.5,231.906,300.5,154.818c0-82.842-67.157-150-150-150c-82.842,0-150,67.158-150,150
			c0,77.633,58.977,141.479,134.565,149.206"/>
	</g>
</g>
<circle display="none" fill="none" stroke="#FFFFFF" stroke-miterlimit="10" cx="150.046" cy="304.667" r="10"/>
<circle fill="#FFFFFF" cx="150.379" cy="305" r="5"/>
<circle fill="#FFFFFF" cx="21" cy="231.5" r="5"/>
<circle fill="#FFFFFF" cx="151" cy="5.5" r="5"/>
<circle fill="#FFFFFF" cx="20" cy="79.5" r="5"/>
</svg>
