<?xml version="1.0" encoding="utf-8"?>
<!-- Generator: Adobe Illustrator 16.0.2, SVG Export Plug-In . SVG Version: 6.00 Build 0)  -->
<!DOCTYPE svg PUBLIC "-//W3C//DTD SVG 1.1//EN" "http://www.w3.org/Graphics/SVG/1.1/DTD/svg11.dtd">
<svg version="1.1" id="principes" xmlns="http://www.w3.org/2000/svg" xmlns:xlink="http://www.w3.org/1999/xlink" x="0px" y="0px"
	 width="301px" height="315.167px" viewBox="0 0 301 315.167" enable-background="new 0 0 301 315.167" xml:space="preserve">
<linearGradient id="SVGID_1_" gradientUnits="userSpaceOnUse" x1="4.8804" y1="446.127" x2="324.8784" y2="-108.126">
	<stop  offset="0" style="stop-color:#FE7A2E"/>
	<stop  offset="0.086" style="stop-color:#FE9153"/>
	<stop  offset="0.2742" style="stop-color:#FE9A61"/>
	<stop  offset="0.5484" style="stop-color:#834943"/>
	<stop  offset="0.7527" style="stop-color:#582D39"/>
	<stop  offset="0.9194" style="stop-color:#361730"/>
</linearGradient>
<rect x="-64.621" y="-68" display="none" fill="url(#SVGID_1_)" width="459" height="474"/>
<g>
	<g>
		<path fill="none" stroke="#FFFFFF" stroke-miterlimit="10" d="M137.563,304.258c0.829,0.071,1.66,0.135,2.493,0.192
			c0.019-0.854,0.144-1.682,0.362-2.47"/>
		<path fill="none" stroke="#FFFFFF" stroke-miterlimit="10" stroke-dasharray="5.2044,5.2044" d="M143.031,297.544
			c1.804-1.78,4.279-2.878,7.015-2.878c3.691,0,6.913,2.001,8.644,4.978"/>
		<path fill="none" stroke="#FFFFFF" stroke-miterlimit="10" d="M159.689,302.036c0.215,0.79,0.335,1.618,0.349,2.472
			c0.833-0.052,1.664-0.111,2.494-0.177"/>
		<path fill="none" stroke="#FFFFFF" stroke-miterlimit="10" stroke-dasharray="5.0137,5.0137" d="M167.523,303.851
			C242.35,295.397,300.5,231.905,300.5,154.818c0-82.842-67.157-150-150-150c-82.842,0-150,67.158-150,150
			c0,77.632,58.977,141.479,134.567,149.206"/>
	</g>
</g>
<circle fill="none" stroke="#FFFFFF" stroke-miterlimit="10" cx="150.046" cy="304.667" r="10"/>
<circle display="none" fill="#FFFFFF" cx="150.379" cy="305" r="5"/>
<circle display="none" fill="#FFFFFF" cx="22.379" cy="231" r="5"/>
<circle display="none" fill="#FFFFFF" cx="155.379" cy="5" r="5"/>
<circle display="none" fill="#FFFFFF" cx="22.379" cy="77" r="5"/>
</svg>
