<?xml version="1.0" encoding="utf-8"?>
<!-- Generator: Adobe Illustrator 16.0.2, SVG Export Plug-In . SVG Version: 6.00 Build 0)  -->
<!DOCTYPE svg PUBLIC "-//W3C//DTD SVG 1.1//EN" "http://www.w3.org/Graphics/SVG/1.1/DTD/svg11.dtd">
<svg version="1.1" xmlns="http://www.w3.org/2000/svg" xmlns:xlink="http://www.w3.org/1999/xlink" x="0px" y="0px"
	 width="694.83px" height="161.75px" viewBox="0 0 694.83 161.75" enable-background="new 0 0 694.83 161.75" xml:space="preserve">
<g id="Layer_1" display="none">
	<polygon fill="none" stroke="#000000" stroke-miterlimit="10" points="80,155 -70,155 5,5 	"/>
	
		<polygon display="inline" fill="none" stroke="#000000" stroke-width="10" stroke-linecap="round" stroke-linejoin="round" stroke-miterlimit="10" points="
		81,156.5 5,156.5 42.955,81.5 	"/>
	
		<polyline display="inline" fill="none" stroke="#000000" stroke-width="10" stroke-linecap="round" stroke-linejoin="round" stroke-miterlimit="10" points="
		115.5,5.5 115.5,156.5 181.5,156.5 	"/>
	
		<circle display="inline" fill="none" stroke="#000000" stroke-width="10" stroke-linecap="round" stroke-linejoin="round" stroke-miterlimit="10" cx="376.955" cy="42.875" r="37.875"/>
	
		<polygon display="inline" fill="none" stroke="#000000" stroke-width="10" stroke-linecap="round" stroke-linejoin="round" stroke-miterlimit="10" points="
		415,156.5 339,156.5 376.955,81.5 	"/>
	
		<line display="inline" fill="none" stroke="#000000" stroke-width="10" stroke-linecap="round" stroke-linejoin="round" stroke-miterlimit="10" x1="468.5" y1="156.5" x2="468.5" y2="80.5"/>
	<g display="inline">
		<g>
			
				<line fill="none" stroke="#000000" stroke-width="10" stroke-linecap="round" stroke-linejoin="round" x1="468.5" y1="61.5" x2="468.5" y2="61.5"/>
			
				<line fill="none" stroke="#000000" stroke-width="10" stroke-linecap="round" stroke-linejoin="round" stroke-dasharray="1,18" x1="468.5" y1="43.5" x2="468.5" y2="14.5"/>
			
				<line fill="none" stroke="#000000" stroke-width="10" stroke-linecap="round" stroke-linejoin="round" x1="468.5" y1="6.5" x2="468.5" y2="5.5"/>
		</g>
	</g>
	
		<circle display="inline" fill="none" stroke="#000000" stroke-width="10" stroke-linecap="round" stroke-linejoin="round" stroke-miterlimit="10" cx="544.955" cy="42.875" r="37.875"/>
	
		<circle display="inline" fill="none" stroke="#000000" stroke-width="10" stroke-linecap="round" stroke-linejoin="round" stroke-miterlimit="10" cx="544.955" cy="118.875" r="37.875"/>
	
		<circle display="inline" fill="none" stroke="#000000" stroke-width="10" stroke-linecap="round" stroke-linejoin="round" stroke-miterlimit="10" cx="651.955" cy="118.875" r="37.875"/>
</g>
<g id="Layer_1_copy">
	<polygon display="none" fill="none" stroke="#000000" stroke-miterlimit="10" points="80,155 -70,155 5,5 	"/>
	<g>
		<path fill="#FFFFFF" d="M81.02,161.5c-0.008,0-0.015-0.001-0.02,0H5c-1.737,0-3.35-0.901-4.26-2.382
			c-0.91-1.479-0.986-3.326-0.202-4.876l37.955-75c0.851-1.681,2.575-2.741,4.459-2.742c0.001,0,0.002,0,0.002,0
			c1.883,0,3.607,1.058,4.459,2.738l37.854,74.625c0.477,0.765,0.751,1.669,0.751,2.637C86.02,159.262,83.781,161.5,81.02,161.5z
			 M13.134,151.5h59.723L42.96,92.563L13.134,151.5z"/>
	</g>
	<g>
		<path fill="#FFFFFF" d="M181.5,161.5h-66c-2.761,0-5-2.238-5-5V5.5c0-2.761,2.239-5,5-5s5,2.239,5,5v146h61c2.761,0,5,2.238,5,5
			S184.261,161.5,181.5,161.5z"/>
	</g>
	<g>
		<path fill="#FFFFFF" d="M376.955,85.75c-23.642,0-42.875-19.234-42.875-42.875S353.313,0,376.955,0s42.875,19.234,42.875,42.875
			S400.597,85.75,376.955,85.75z M376.955,10c-18.127,0-32.875,14.748-32.875,32.875s14.748,32.875,32.875,32.875
			s32.875-14.748,32.875-32.875S395.082,10,376.955,10z"/>
	</g>
	<g>
		<path fill="#FFFFFF" d="M415.02,161.5c-0.005-0.001-0.013-0.001-0.02,0h-76c-1.737,0-3.35-0.901-4.26-2.382
			c-0.909-1.479-0.986-3.326-0.201-4.876l37.955-75c0.851-1.681,2.574-2.741,4.459-2.742c0,0,0.001,0,0.002,0
			c1.884,0,3.607,1.058,4.459,2.738l37.854,74.625c0.477,0.765,0.751,1.669,0.751,2.637C420.02,159.262,417.781,161.5,415.02,161.5z
			 M347.134,151.5h59.724L376.96,92.563L347.134,151.5z"/>
	</g>
	<g>
		<path fill="#FFFFFF" d="M468.5,161.5c-2.762,0-5-2.238-5-5v-76c0-2.761,2.238-5,5-5s5,2.239,5,5v76
			C473.5,159.262,471.262,161.5,468.5,161.5z"/>
	</g>
	<g>
		<g>
			<path fill="#FFFFFF" d="M468.5,66.5c-1.311,0-2.601-0.53-3.54-1.46c-0.93-0.93-1.46-2.22-1.46-3.54c0-1.32,0.53-2.61,1.46-3.54
				c0.939-0.93,2.229-1.46,3.54-1.46c1.31,0,2.6,0.53,3.54,1.46c0.93,0.94,1.46,2.22,1.46,3.54c0,1.32-0.53,2.61-1.46,3.54
				C471.1,65.97,469.81,66.5,468.5,66.5z"/>
		</g>
		<g>
			<path fill="#FFFFFF" d="M468.5,48.5c-2.762,0-5-2.239-5-5v-1c0-2.761,2.238-5,5-5s5,2.239,5,5v1
				C473.5,46.261,471.262,48.5,468.5,48.5z M468.5,29.5c-2.762,0-5-2.239-5-5v-1c0-2.761,2.238-5,5-5s5,2.239,5,5v1
				C473.5,27.261,471.262,29.5,468.5,29.5z"/>
		</g>
		<g>
			<path fill="#FFFFFF" d="M468.5,11.5c-2.762,0-5-2.239-5-5v-1c0-2.761,2.238-5,5-5s5,2.239,5,5v1
				C473.5,9.261,471.262,11.5,468.5,11.5z"/>
		</g>
	</g>
	<g>
		<path fill="#FFFFFF" d="M544.955,85.75c-23.642,0-42.875-19.234-42.875-42.875S521.313,0,544.955,0s42.875,19.234,42.875,42.875
			S568.597,85.75,544.955,85.75z M544.955,10c-18.127,0-32.875,14.748-32.875,32.875s14.748,32.875,32.875,32.875
			s32.875-14.748,32.875-32.875S563.082,10,544.955,10z"/>
	</g>
	<g>
		<path fill="#FFFFFF" d="M544.955,161.75c-23.642,0-42.875-19.233-42.875-42.875C502.08,95.234,521.313,76,544.955,76
			s42.875,19.234,42.875,42.875C587.83,142.517,568.597,161.75,544.955,161.75z M544.955,86c-18.127,0-32.875,14.748-32.875,32.875
			c0,18.127,14.748,32.875,32.875,32.875s32.875-14.748,32.875-32.875C577.83,100.748,563.082,86,544.955,86z"/>
	</g>
	<g>
		<path fill="#FFFFFF" d="M651.955,161.75c-23.642,0-42.875-19.233-42.875-42.875C609.08,95.234,628.313,76,651.955,76
			s42.875,19.234,42.875,42.875C694.83,142.517,675.597,161.75,651.955,161.75z M651.955,86c-18.127,0-32.875,14.748-32.875,32.875
			c0,18.127,14.748,32.875,32.875,32.875s32.875-14.748,32.875-32.875C684.83,100.748,670.082,86,651.955,86z"/>
	</g>
</g>
</svg>
